<svg width="512" height="512" viewBox="0 0 512 512" fill="none" xmlns="http://www.w3.org/2000/svg">
  <rect width="512" height="512" rx="128" fill="#3b82f6"/>
  <path d="M256 96C176.5 96 112 160.5 112 240c0 47.7 23.9 89.9 60.5 115.5C199.1 371.1 256 384 256 384s56.9-12.9 83.5-28.5C376.1 329.9 400 287.7 400 240c0-79.5-64.5-144-144-144z" fill="white"/>
  <circle cx="256" cy="240" r="64" fill="#3b82f6"/>
  <path d="M256 208c-17.7 0-32 14.3-32 32s14.3 32 32 32 32-14.3 32-32-14.3-32-32-32z" fill="white"/>
</svg> 